<svg width="418" height="426" viewBox="0 0 418 426" fill="none" xmlns="http://www.w3.org/2000/svg">
<path d="M9.38892 210.708C9.38892 100.527 98.7081 11.2083 208.889 11.2083H397.75C408.52 11.2083 417.25 19.9388 417.25 30.7083V285.264C417.25 362.308 354.794 424.764 277.75 424.764H28.8889C18.1194 424.764 9.38892 416.033 9.38892 405.264V210.708Z" stroke="#2B9AC9"/>
<path d="M0.916748 200.458C0.916748 90.0015 90.4598 0.458344 200.917 0.458344H386.411C397.456 0.458344 406.411 9.41265 406.411 20.4583V277.292C406.411 354.611 343.731 417.292 266.411 417.292H20.9167C9.87105 417.292 0.916748 408.337 0.916748 397.292V200.458Z" fill="#2B9AC9" fill-opacity="0.99"/>
</svg>
